G04 #@! TF.FileFunction,Legend,Top*
%FSLAX46Y46*%
G04 Gerber Fmt 4.6, Leading zero omitted, Abs format (unit mm)*
G04 Created by KiCad (PCBNEW 0.201506152246+5755~23~ubuntu14.10.1-product) date Tue Jun 16 17:37:46 2015*
%MOMM*%
G01*
G04 APERTURE LIST*
%ADD10C,0.100000*%
%ADD11C,0.200000*%
%ADD12C,0.300000*%
%ADD13C,0.002540*%
%ADD14C,0.150000*%
%ADD15C,0.120000*%
%ADD16R,2.032000X2.032000*%
%ADD17O,2.032000X2.032000*%
%ADD18R,3.657600X2.032000*%
%ADD19R,1.016000X2.032000*%
%ADD20R,1.300000X1.500000*%
%ADD21R,1.500000X1.300000*%
%ADD22R,1.198880X1.198880*%
%ADD23R,1.250000X1.500000*%
%ADD24C,3.800000*%
G04 APERTURE END LIST*
D10*
D11*
X103819048Y-96885714D02*
X104009524Y-97552381D01*
X104200001Y-97076190D01*
X104390477Y-97552381D01*
X104580953Y-96885714D01*
X104866667Y-96885714D02*
X105104762Y-97552381D01*
X105342858Y-96885714D02*
X105104762Y-97552381D01*
X105009524Y-97790476D01*
X104961905Y-97838095D01*
X104866667Y-97885714D01*
X105866667Y-97552381D02*
X105771429Y-97504762D01*
X105723810Y-97457143D01*
X105676191Y-97361905D01*
X105676191Y-97076190D01*
X105723810Y-96980952D01*
X105771429Y-96933333D01*
X105866667Y-96885714D01*
X106009525Y-96885714D01*
X106104763Y-96933333D01*
X106152382Y-96980952D01*
X106200001Y-97076190D01*
X106200001Y-97361905D01*
X106152382Y-97457143D01*
X106104763Y-97504762D01*
X106009525Y-97552381D01*
X105866667Y-97552381D01*
X106771429Y-97552381D02*
X106676191Y-97504762D01*
X106628572Y-97409524D01*
X106628572Y-96552381D01*
X107580954Y-96885714D02*
X107580954Y-97552381D01*
X107152382Y-96885714D02*
X107152382Y-97409524D01*
X107200001Y-97504762D01*
X107295239Y-97552381D01*
X107438097Y-97552381D01*
X107533335Y-97504762D01*
X107580954Y-97457143D01*
X108057144Y-97552381D02*
X108057144Y-96885714D01*
X108057144Y-96980952D02*
X108104763Y-96933333D01*
X108200001Y-96885714D01*
X108342859Y-96885714D01*
X108438097Y-96933333D01*
X108485716Y-97028571D01*
X108485716Y-97552381D01*
X108485716Y-97028571D02*
X108533335Y-96933333D01*
X108628573Y-96885714D01*
X108771430Y-96885714D01*
X108866668Y-96933333D01*
X108914287Y-97028571D01*
X108914287Y-97552381D01*
X109390477Y-97457143D02*
X109438096Y-97504762D01*
X109390477Y-97552381D01*
X109342858Y-97504762D01*
X109390477Y-97457143D01*
X109390477Y-97552381D01*
X110295239Y-97504762D02*
X110200001Y-97552381D01*
X110009524Y-97552381D01*
X109914286Y-97504762D01*
X109866667Y-97457143D01*
X109819048Y-97361905D01*
X109819048Y-97076190D01*
X109866667Y-96980952D01*
X109914286Y-96933333D01*
X110009524Y-96885714D01*
X110200001Y-96885714D01*
X110295239Y-96933333D01*
X110866667Y-97552381D02*
X110771429Y-97504762D01*
X110723810Y-97457143D01*
X110676191Y-97361905D01*
X110676191Y-97076190D01*
X110723810Y-96980952D01*
X110771429Y-96933333D01*
X110866667Y-96885714D01*
X111009525Y-96885714D01*
X111104763Y-96933333D01*
X111152382Y-96980952D01*
X111200001Y-97076190D01*
X111200001Y-97361905D01*
X111152382Y-97457143D01*
X111104763Y-97504762D01*
X111009525Y-97552381D01*
X110866667Y-97552381D01*
X111628572Y-97552381D02*
X111628572Y-96885714D01*
X111628572Y-96980952D02*
X111676191Y-96933333D01*
X111771429Y-96885714D01*
X111914287Y-96885714D01*
X112009525Y-96933333D01*
X112057144Y-97028571D01*
X112057144Y-97552381D01*
X112057144Y-97028571D02*
X112104763Y-96933333D01*
X112200001Y-96885714D01*
X112342858Y-96885714D01*
X112438096Y-96933333D01*
X112485715Y-97028571D01*
X112485715Y-97552381D01*
X87700000Y-106000000D02*
X88100000Y-105800000D01*
X87700000Y-105600000D02*
X87700000Y-106000000D01*
X88100000Y-105800000D02*
X87700000Y-105600000D01*
X87400000Y-105800000D02*
X88100000Y-105800000D01*
X87400000Y-101900000D02*
X87400000Y-105800000D01*
X89200000Y-101900000D02*
X87400000Y-101900000D01*
D10*
X87410000Y-101500000D02*
X87410000Y-101133333D01*
X87876667Y-101500000D01*
X87876667Y-101133333D01*
X87843333Y-100600000D02*
X87876667Y-100666666D01*
X87876667Y-100800000D01*
X87843333Y-100866666D01*
X87776667Y-100900000D01*
X87510000Y-100900000D01*
X87443333Y-100866666D01*
X87410000Y-100800000D01*
X87410000Y-100666666D01*
X87443333Y-100600000D01*
X87510000Y-100566666D01*
X87576667Y-100566666D01*
X87643333Y-100900000D01*
X87876667Y-100266666D02*
X87410000Y-100266666D01*
X87543333Y-100266666D02*
X87476667Y-100233333D01*
X87443333Y-100200000D01*
X87410000Y-100133333D01*
X87410000Y-100066666D01*
X87876667Y-99733333D02*
X87843333Y-99800000D01*
X87810000Y-99833333D01*
X87743333Y-99866667D01*
X87543333Y-99866667D01*
X87476667Y-99833333D01*
X87443333Y-99800000D01*
X87410000Y-99733333D01*
X87410000Y-99633333D01*
X87443333Y-99566667D01*
X87476667Y-99533333D01*
X87543333Y-99500000D01*
X87743333Y-99500000D01*
X87810000Y-99533333D01*
X87843333Y-99566667D01*
X87876667Y-99633333D01*
X87876667Y-99733333D01*
X87410000Y-98766667D02*
X87410000Y-98500001D01*
X87876667Y-98666667D02*
X87276667Y-98666667D01*
X87210000Y-98633334D01*
X87176667Y-98566667D01*
X87176667Y-98500001D01*
X87876667Y-98166667D02*
X87843333Y-98233334D01*
X87810000Y-98266667D01*
X87743333Y-98300001D01*
X87543333Y-98300001D01*
X87476667Y-98266667D01*
X87443333Y-98233334D01*
X87410000Y-98166667D01*
X87410000Y-98066667D01*
X87443333Y-98000001D01*
X87476667Y-97966667D01*
X87543333Y-97933334D01*
X87743333Y-97933334D01*
X87810000Y-97966667D01*
X87843333Y-98000001D01*
X87876667Y-98066667D01*
X87876667Y-98166667D01*
X87876667Y-97633334D02*
X87410000Y-97633334D01*
X87543333Y-97633334D02*
X87476667Y-97600001D01*
X87443333Y-97566668D01*
X87410000Y-97500001D01*
X87410000Y-97433334D01*
X87176667Y-96733335D02*
X87176667Y-96300002D01*
X87443333Y-96533335D01*
X87443333Y-96433335D01*
X87476667Y-96366668D01*
X87510000Y-96333335D01*
X87576667Y-96300002D01*
X87743333Y-96300002D01*
X87810000Y-96333335D01*
X87843333Y-96366668D01*
X87876667Y-96433335D01*
X87876667Y-96633335D01*
X87843333Y-96700002D01*
X87810000Y-96733335D01*
X87176667Y-96100001D02*
X87876667Y-95866668D01*
X87176667Y-95633335D01*
X87176667Y-95466668D02*
X87176667Y-95033335D01*
X87443333Y-95266668D01*
X87443333Y-95166668D01*
X87476667Y-95100001D01*
X87510000Y-95066668D01*
X87576667Y-95033335D01*
X87743333Y-95033335D01*
X87810000Y-95066668D01*
X87843333Y-95100001D01*
X87876667Y-95166668D01*
X87876667Y-95366668D01*
X87843333Y-95433335D01*
X87810000Y-95466668D01*
X88956667Y-101333333D02*
X88923333Y-101400000D01*
X88890000Y-101433333D01*
X88823333Y-101466667D01*
X88623333Y-101466667D01*
X88556667Y-101433333D01*
X88523333Y-101400000D01*
X88490000Y-101333333D01*
X88490000Y-101233333D01*
X88523333Y-101166667D01*
X88556667Y-101133333D01*
X88623333Y-101100000D01*
X88823333Y-101100000D01*
X88890000Y-101133333D01*
X88923333Y-101166667D01*
X88956667Y-101233333D01*
X88956667Y-101333333D01*
X88490000Y-100800000D02*
X89190000Y-100800000D01*
X88523333Y-100800000D02*
X88490000Y-100733334D01*
X88490000Y-100600000D01*
X88523333Y-100533334D01*
X88556667Y-100500000D01*
X88623333Y-100466667D01*
X88823333Y-100466667D01*
X88890000Y-100500000D01*
X88923333Y-100533334D01*
X88956667Y-100600000D01*
X88956667Y-100733334D01*
X88923333Y-100800000D01*
X88923333Y-99900001D02*
X88956667Y-99966667D01*
X88956667Y-100100001D01*
X88923333Y-100166667D01*
X88856667Y-100200001D01*
X88590000Y-100200001D01*
X88523333Y-100166667D01*
X88490000Y-100100001D01*
X88490000Y-99966667D01*
X88523333Y-99900001D01*
X88590000Y-99866667D01*
X88656667Y-99866667D01*
X88723333Y-100200001D01*
X88490000Y-99566667D02*
X88956667Y-99566667D01*
X88556667Y-99566667D02*
X88523333Y-99533334D01*
X88490000Y-99466667D01*
X88490000Y-99366667D01*
X88523333Y-99300001D01*
X88590000Y-99266667D01*
X88956667Y-99266667D01*
X88490000Y-98500001D02*
X88490000Y-98233335D01*
X88956667Y-98400001D02*
X88356667Y-98400001D01*
X88290000Y-98366668D01*
X88256667Y-98300001D01*
X88256667Y-98233335D01*
X88956667Y-97900001D02*
X88923333Y-97966668D01*
X88890000Y-98000001D01*
X88823333Y-98033335D01*
X88623333Y-98033335D01*
X88556667Y-98000001D01*
X88523333Y-97966668D01*
X88490000Y-97900001D01*
X88490000Y-97800001D01*
X88523333Y-97733335D01*
X88556667Y-97700001D01*
X88623333Y-97666668D01*
X88823333Y-97666668D01*
X88890000Y-97700001D01*
X88923333Y-97733335D01*
X88956667Y-97800001D01*
X88956667Y-97900001D01*
X88956667Y-97366668D02*
X88490000Y-97366668D01*
X88623333Y-97366668D02*
X88556667Y-97333335D01*
X88523333Y-97300002D01*
X88490000Y-97233335D01*
X88490000Y-97166668D01*
X88256667Y-96066669D02*
X88256667Y-96400002D01*
X88590000Y-96433336D01*
X88556667Y-96400002D01*
X88523333Y-96333336D01*
X88523333Y-96166669D01*
X88556667Y-96100002D01*
X88590000Y-96066669D01*
X88656667Y-96033336D01*
X88823333Y-96033336D01*
X88890000Y-96066669D01*
X88923333Y-96100002D01*
X88956667Y-96166669D01*
X88956667Y-96333336D01*
X88923333Y-96400002D01*
X88890000Y-96433336D01*
X88256667Y-95833335D02*
X88956667Y-95600002D01*
X88256667Y-95366669D01*
X88256667Y-95000002D02*
X88256667Y-94933335D01*
X88290000Y-94866669D01*
X88323333Y-94833335D01*
X88390000Y-94800002D01*
X88523333Y-94766669D01*
X88690000Y-94766669D01*
X88823333Y-94800002D01*
X88890000Y-94833335D01*
X88923333Y-94866669D01*
X88956667Y-94933335D01*
X88956667Y-95000002D01*
X88923333Y-95066669D01*
X88890000Y-95100002D01*
X88823333Y-95133335D01*
X88690000Y-95166669D01*
X88523333Y-95166669D01*
X88390000Y-95133335D01*
X88323333Y-95100002D01*
X88290000Y-95066669D01*
X88256667Y-95000002D01*
D12*
X93757143Y-94078571D02*
X93400000Y-94078571D01*
X93400000Y-91935714D01*
X93757143Y-91935714D01*
X94328572Y-93007143D02*
X95471429Y-93007143D01*
X96042858Y-94078571D02*
X96400001Y-94078571D01*
X96400001Y-91935714D01*
X96042858Y-91935714D01*
X103957143Y-94078571D02*
X103600000Y-94078571D01*
X103600000Y-91935714D01*
X103957143Y-91935714D01*
X104528572Y-93007143D02*
X105671429Y-93007143D01*
X105100000Y-93578571D02*
X105100000Y-92435714D01*
X106242858Y-94078571D02*
X106600001Y-94078571D01*
X106600001Y-91935714D01*
X106242858Y-91935714D01*
D10*
X113000000Y-107500000D02*
X113000000Y-92500000D01*
X88000000Y-108500000D02*
X112000000Y-108500000D01*
X87000000Y-92500000D02*
X87000000Y-107500000D01*
X112000000Y-91500000D02*
X88000000Y-91500000D01*
X113000000Y-92500000D02*
G75*
G03X112000000Y-91500000I-1000000J0D01*
G01*
X112000000Y-108500000D02*
G75*
G03X113000000Y-107500000I0J1000000D01*
G01*
X87000000Y-107500000D02*
G75*
G03X88000000Y-108500000I1000000J0D01*
G01*
X88000000Y-91500000D02*
G75*
G03X87000000Y-92500000I0J-1000000D01*
G01*
D13*
G36*
X109388420Y-95595780D02*
X109408740Y-95585620D01*
X109457000Y-95555140D01*
X109523040Y-95511960D01*
X109601780Y-95458620D01*
X109680520Y-95405280D01*
X109746560Y-95362100D01*
X109792280Y-95331620D01*
X109810060Y-95321460D01*
X109820220Y-95324000D01*
X109858320Y-95344320D01*
X109914200Y-95372260D01*
X109944680Y-95387500D01*
X109995480Y-95410360D01*
X110020880Y-95415440D01*
X110023420Y-95407820D01*
X110043740Y-95369720D01*
X110071680Y-95303680D01*
X110109780Y-95217320D01*
X110152960Y-95115720D01*
X110198680Y-95006500D01*
X110244400Y-94894740D01*
X110290120Y-94788060D01*
X110328220Y-94691540D01*
X110361240Y-94615340D01*
X110381560Y-94559460D01*
X110389180Y-94536600D01*
X110386640Y-94531520D01*
X110361240Y-94508660D01*
X110318060Y-94475640D01*
X110221540Y-94396900D01*
X110130100Y-94280060D01*
X110071680Y-94147980D01*
X110053900Y-94000660D01*
X110069140Y-93866040D01*
X110122480Y-93736500D01*
X110213920Y-93617120D01*
X110325680Y-93530760D01*
X110455220Y-93474880D01*
X110600000Y-93457100D01*
X110739700Y-93472340D01*
X110871780Y-93525680D01*
X110991160Y-93614580D01*
X111039420Y-93673000D01*
X111108000Y-93792380D01*
X111148640Y-93919380D01*
X111151180Y-93949860D01*
X111146100Y-94092100D01*
X111105460Y-94226720D01*
X111031800Y-94346100D01*
X110927660Y-94445160D01*
X110914960Y-94455320D01*
X110866700Y-94490880D01*
X110836220Y-94513740D01*
X110810820Y-94534060D01*
X110988620Y-94965860D01*
X111016560Y-95034440D01*
X111067360Y-95151280D01*
X111110540Y-95252880D01*
X111143560Y-95334160D01*
X111168960Y-95387500D01*
X111179120Y-95410360D01*
X111179120Y-95410360D01*
X111194360Y-95412900D01*
X111227380Y-95400200D01*
X111288340Y-95372260D01*
X111328980Y-95351940D01*
X111374700Y-95329080D01*
X111395020Y-95321460D01*
X111412800Y-95331620D01*
X111455980Y-95359560D01*
X111519480Y-95402740D01*
X111595680Y-95453540D01*
X111669340Y-95504340D01*
X111737920Y-95550060D01*
X111786180Y-95580540D01*
X111811580Y-95593240D01*
X111814120Y-95593240D01*
X111834440Y-95580540D01*
X111875080Y-95550060D01*
X111933500Y-95494180D01*
X112014780Y-95412900D01*
X112027480Y-95400200D01*
X112096060Y-95329080D01*
X112151940Y-95270660D01*
X112190040Y-95230020D01*
X112202740Y-95212240D01*
X112202740Y-95212240D01*
X112190040Y-95186840D01*
X112159560Y-95138580D01*
X112113840Y-95070000D01*
X112060500Y-94991260D01*
X111918260Y-94782980D01*
X111997000Y-94587400D01*
X112019860Y-94528980D01*
X112050340Y-94455320D01*
X112073200Y-94404520D01*
X112085900Y-94381660D01*
X112106220Y-94374040D01*
X112159560Y-94361340D01*
X112238300Y-94343560D01*
X112329740Y-94328320D01*
X112418640Y-94310540D01*
X112497380Y-94295300D01*
X112555800Y-94285140D01*
X112581200Y-94280060D01*
X112586280Y-94274980D01*
X112591360Y-94262280D01*
X112596440Y-94236880D01*
X112596440Y-94188620D01*
X112598980Y-94112420D01*
X112598980Y-94000660D01*
X112598980Y-93990500D01*
X112596440Y-93883820D01*
X112596440Y-93800000D01*
X112593900Y-93746660D01*
X112588820Y-93726340D01*
X112588820Y-93726340D01*
X112563420Y-93718720D01*
X112507540Y-93708560D01*
X112428800Y-93690780D01*
X112332280Y-93673000D01*
X112327200Y-93673000D01*
X112233220Y-93655220D01*
X112154480Y-93637440D01*
X112098600Y-93624740D01*
X112075740Y-93617120D01*
X112070660Y-93612040D01*
X112050340Y-93573940D01*
X112022400Y-93515520D01*
X111991920Y-93444400D01*
X111961440Y-93370740D01*
X111933500Y-93302160D01*
X111915720Y-93253900D01*
X111910640Y-93231040D01*
X111910640Y-93231040D01*
X111925880Y-93208180D01*
X111958900Y-93157380D01*
X112004620Y-93091340D01*
X112060500Y-93010060D01*
X112063040Y-93002440D01*
X112118920Y-92923700D01*
X112162100Y-92855120D01*
X112192580Y-92806860D01*
X112202740Y-92786540D01*
X112202740Y-92784000D01*
X112184960Y-92761140D01*
X112144320Y-92715420D01*
X112085900Y-92654460D01*
X112014780Y-92583340D01*
X111991920Y-92563020D01*
X111915720Y-92486820D01*
X111862380Y-92436020D01*
X111826820Y-92410620D01*
X111811580Y-92403000D01*
X111811580Y-92405540D01*
X111786180Y-92418240D01*
X111735380Y-92451260D01*
X111666800Y-92499520D01*
X111585520Y-92552860D01*
X111580440Y-92557940D01*
X111501700Y-92611280D01*
X111435660Y-92657000D01*
X111387400Y-92687480D01*
X111367080Y-92700180D01*
X111362000Y-92700180D01*
X111331520Y-92690020D01*
X111273100Y-92672240D01*
X111204520Y-92644300D01*
X111130860Y-92613820D01*
X111062280Y-92585880D01*
X111011480Y-92563020D01*
X110988620Y-92550320D01*
X110988620Y-92547780D01*
X110978460Y-92519840D01*
X110965760Y-92458880D01*
X110947980Y-92377600D01*
X110930200Y-92278540D01*
X110927660Y-92263300D01*
X110909880Y-92169320D01*
X110894640Y-92090580D01*
X110881940Y-92034700D01*
X110876860Y-92011840D01*
X110864160Y-92009300D01*
X110815900Y-92006760D01*
X110744780Y-92004220D01*
X110658420Y-92004220D01*
X110569520Y-92004220D01*
X110483160Y-92006760D01*
X110406960Y-92009300D01*
X110353620Y-92011840D01*
X110330760Y-92016920D01*
X110328220Y-92019460D01*
X110320600Y-92047400D01*
X110307900Y-92108360D01*
X110290120Y-92189640D01*
X110272340Y-92288700D01*
X110269800Y-92306480D01*
X110252020Y-92400460D01*
X110234240Y-92479200D01*
X110224080Y-92532540D01*
X110216460Y-92552860D01*
X110208840Y-92557940D01*
X110170740Y-92575720D01*
X110107240Y-92601120D01*
X110025960Y-92634140D01*
X109843080Y-92707800D01*
X109619560Y-92552860D01*
X109599240Y-92540160D01*
X109517960Y-92484280D01*
X109451920Y-92441100D01*
X109406200Y-92410620D01*
X109385880Y-92400460D01*
X109385880Y-92400460D01*
X109363020Y-92420780D01*
X109317300Y-92461420D01*
X109256340Y-92522380D01*
X109187760Y-92590960D01*
X109134420Y-92644300D01*
X109073460Y-92707800D01*
X109032820Y-92748440D01*
X109012500Y-92776380D01*
X109004880Y-92794160D01*
X109007420Y-92804320D01*
X109020120Y-92827180D01*
X109053140Y-92875440D01*
X109098860Y-92944020D01*
X109154740Y-93022760D01*
X109200460Y-93091340D01*
X109248720Y-93165000D01*
X109279200Y-93218340D01*
X109291900Y-93246280D01*
X109289360Y-93256440D01*
X109271580Y-93299620D01*
X109246180Y-93368200D01*
X109213160Y-93446940D01*
X109134420Y-93624740D01*
X109017580Y-93645060D01*
X108946460Y-93660300D01*
X108847400Y-93678080D01*
X108753420Y-93695860D01*
X108606100Y-93726340D01*
X108601020Y-94264820D01*
X108623880Y-94274980D01*
X108646740Y-94282600D01*
X108700080Y-94292760D01*
X108778820Y-94308000D01*
X108870260Y-94325780D01*
X108949000Y-94341020D01*
X109027740Y-94356260D01*
X109083620Y-94366420D01*
X109109020Y-94371500D01*
X109116640Y-94381660D01*
X109136960Y-94419760D01*
X109164900Y-94480720D01*
X109195380Y-94554380D01*
X109225860Y-94628040D01*
X109253800Y-94699160D01*
X109274120Y-94752500D01*
X109281740Y-94780440D01*
X109271580Y-94800760D01*
X109241100Y-94846480D01*
X109197920Y-94912520D01*
X109144580Y-94991260D01*
X109088700Y-95070000D01*
X109045520Y-95138580D01*
X109012500Y-95186840D01*
X108999800Y-95207160D01*
X109007420Y-95222400D01*
X109037900Y-95260500D01*
X109096320Y-95321460D01*
X109185220Y-95410360D01*
X109200460Y-95423060D01*
X109269040Y-95491640D01*
X109330000Y-95544980D01*
X109370640Y-95583080D01*
X109388420Y-95595780D01*
X109388420Y-95595780D01*
G37*
X109388420Y-95595780D02*
X109408740Y-95585620D01*
X109457000Y-95555140D01*
X109523040Y-95511960D01*
X109601780Y-95458620D01*
X109680520Y-95405280D01*
X109746560Y-95362100D01*
X109792280Y-95331620D01*
X109810060Y-95321460D01*
X109820220Y-95324000D01*
X109858320Y-95344320D01*
X109914200Y-95372260D01*
X109944680Y-95387500D01*
X109995480Y-95410360D01*
X110020880Y-95415440D01*
X110023420Y-95407820D01*
X110043740Y-95369720D01*
X110071680Y-95303680D01*
X110109780Y-95217320D01*
X110152960Y-95115720D01*
X110198680Y-95006500D01*
X110244400Y-94894740D01*
X110290120Y-94788060D01*
X110328220Y-94691540D01*
X110361240Y-94615340D01*
X110381560Y-94559460D01*
X110389180Y-94536600D01*
X110386640Y-94531520D01*
X110361240Y-94508660D01*
X110318060Y-94475640D01*
X110221540Y-94396900D01*
X110130100Y-94280060D01*
X110071680Y-94147980D01*
X110053900Y-94000660D01*
X110069140Y-93866040D01*
X110122480Y-93736500D01*
X110213920Y-93617120D01*
X110325680Y-93530760D01*
X110455220Y-93474880D01*
X110600000Y-93457100D01*
X110739700Y-93472340D01*
X110871780Y-93525680D01*
X110991160Y-93614580D01*
X111039420Y-93673000D01*
X111108000Y-93792380D01*
X111148640Y-93919380D01*
X111151180Y-93949860D01*
X111146100Y-94092100D01*
X111105460Y-94226720D01*
X111031800Y-94346100D01*
X110927660Y-94445160D01*
X110914960Y-94455320D01*
X110866700Y-94490880D01*
X110836220Y-94513740D01*
X110810820Y-94534060D01*
X110988620Y-94965860D01*
X111016560Y-95034440D01*
X111067360Y-95151280D01*
X111110540Y-95252880D01*
X111143560Y-95334160D01*
X111168960Y-95387500D01*
X111179120Y-95410360D01*
X111179120Y-95410360D01*
X111194360Y-95412900D01*
X111227380Y-95400200D01*
X111288340Y-95372260D01*
X111328980Y-95351940D01*
X111374700Y-95329080D01*
X111395020Y-95321460D01*
X111412800Y-95331620D01*
X111455980Y-95359560D01*
X111519480Y-95402740D01*
X111595680Y-95453540D01*
X111669340Y-95504340D01*
X111737920Y-95550060D01*
X111786180Y-95580540D01*
X111811580Y-95593240D01*
X111814120Y-95593240D01*
X111834440Y-95580540D01*
X111875080Y-95550060D01*
X111933500Y-95494180D01*
X112014780Y-95412900D01*
X112027480Y-95400200D01*
X112096060Y-95329080D01*
X112151940Y-95270660D01*
X112190040Y-95230020D01*
X112202740Y-95212240D01*
X112202740Y-95212240D01*
X112190040Y-95186840D01*
X112159560Y-95138580D01*
X112113840Y-95070000D01*
X112060500Y-94991260D01*
X111918260Y-94782980D01*
X111997000Y-94587400D01*
X112019860Y-94528980D01*
X112050340Y-94455320D01*
X112073200Y-94404520D01*
X112085900Y-94381660D01*
X112106220Y-94374040D01*
X112159560Y-94361340D01*
X112238300Y-94343560D01*
X112329740Y-94328320D01*
X112418640Y-94310540D01*
X112497380Y-94295300D01*
X112555800Y-94285140D01*
X112581200Y-94280060D01*
X112586280Y-94274980D01*
X112591360Y-94262280D01*
X112596440Y-94236880D01*
X112596440Y-94188620D01*
X112598980Y-94112420D01*
X112598980Y-94000660D01*
X112598980Y-93990500D01*
X112596440Y-93883820D01*
X112596440Y-93800000D01*
X112593900Y-93746660D01*
X112588820Y-93726340D01*
X112588820Y-93726340D01*
X112563420Y-93718720D01*
X112507540Y-93708560D01*
X112428800Y-93690780D01*
X112332280Y-93673000D01*
X112327200Y-93673000D01*
X112233220Y-93655220D01*
X112154480Y-93637440D01*
X112098600Y-93624740D01*
X112075740Y-93617120D01*
X112070660Y-93612040D01*
X112050340Y-93573940D01*
X112022400Y-93515520D01*
X111991920Y-93444400D01*
X111961440Y-93370740D01*
X111933500Y-93302160D01*
X111915720Y-93253900D01*
X111910640Y-93231040D01*
X111910640Y-93231040D01*
X111925880Y-93208180D01*
X111958900Y-93157380D01*
X112004620Y-93091340D01*
X112060500Y-93010060D01*
X112063040Y-93002440D01*
X112118920Y-92923700D01*
X112162100Y-92855120D01*
X112192580Y-92806860D01*
X112202740Y-92786540D01*
X112202740Y-92784000D01*
X112184960Y-92761140D01*
X112144320Y-92715420D01*
X112085900Y-92654460D01*
X112014780Y-92583340D01*
X111991920Y-92563020D01*
X111915720Y-92486820D01*
X111862380Y-92436020D01*
X111826820Y-92410620D01*
X111811580Y-92403000D01*
X111811580Y-92405540D01*
X111786180Y-92418240D01*
X111735380Y-92451260D01*
X111666800Y-92499520D01*
X111585520Y-92552860D01*
X111580440Y-92557940D01*
X111501700Y-92611280D01*
X111435660Y-92657000D01*
X111387400Y-92687480D01*
X111367080Y-92700180D01*
X111362000Y-92700180D01*
X111331520Y-92690020D01*
X111273100Y-92672240D01*
X111204520Y-92644300D01*
X111130860Y-92613820D01*
X111062280Y-92585880D01*
X111011480Y-92563020D01*
X110988620Y-92550320D01*
X110988620Y-92547780D01*
X110978460Y-92519840D01*
X110965760Y-92458880D01*
X110947980Y-92377600D01*
X110930200Y-92278540D01*
X110927660Y-92263300D01*
X110909880Y-92169320D01*
X110894640Y-92090580D01*
X110881940Y-92034700D01*
X110876860Y-92011840D01*
X110864160Y-92009300D01*
X110815900Y-92006760D01*
X110744780Y-92004220D01*
X110658420Y-92004220D01*
X110569520Y-92004220D01*
X110483160Y-92006760D01*
X110406960Y-92009300D01*
X110353620Y-92011840D01*
X110330760Y-92016920D01*
X110328220Y-92019460D01*
X110320600Y-92047400D01*
X110307900Y-92108360D01*
X110290120Y-92189640D01*
X110272340Y-92288700D01*
X110269800Y-92306480D01*
X110252020Y-92400460D01*
X110234240Y-92479200D01*
X110224080Y-92532540D01*
X110216460Y-92552860D01*
X110208840Y-92557940D01*
X110170740Y-92575720D01*
X110107240Y-92601120D01*
X110025960Y-92634140D01*
X109843080Y-92707800D01*
X109619560Y-92552860D01*
X109599240Y-92540160D01*
X109517960Y-92484280D01*
X109451920Y-92441100D01*
X109406200Y-92410620D01*
X109385880Y-92400460D01*
X109385880Y-92400460D01*
X109363020Y-92420780D01*
X109317300Y-92461420D01*
X109256340Y-92522380D01*
X109187760Y-92590960D01*
X109134420Y-92644300D01*
X109073460Y-92707800D01*
X109032820Y-92748440D01*
X109012500Y-92776380D01*
X109004880Y-92794160D01*
X109007420Y-92804320D01*
X109020120Y-92827180D01*
X109053140Y-92875440D01*
X109098860Y-92944020D01*
X109154740Y-93022760D01*
X109200460Y-93091340D01*
X109248720Y-93165000D01*
X109279200Y-93218340D01*
X109291900Y-93246280D01*
X109289360Y-93256440D01*
X109271580Y-93299620D01*
X109246180Y-93368200D01*
X109213160Y-93446940D01*
X109134420Y-93624740D01*
X109017580Y-93645060D01*
X108946460Y-93660300D01*
X108847400Y-93678080D01*
X108753420Y-93695860D01*
X108606100Y-93726340D01*
X108601020Y-94264820D01*
X108623880Y-94274980D01*
X108646740Y-94282600D01*
X108700080Y-94292760D01*
X108778820Y-94308000D01*
X108870260Y-94325780D01*
X108949000Y-94341020D01*
X109027740Y-94356260D01*
X109083620Y-94366420D01*
X109109020Y-94371500D01*
X109116640Y-94381660D01*
X109136960Y-94419760D01*
X109164900Y-94480720D01*
X109195380Y-94554380D01*
X109225860Y-94628040D01*
X109253800Y-94699160D01*
X109274120Y-94752500D01*
X109281740Y-94780440D01*
X109271580Y-94800760D01*
X109241100Y-94846480D01*
X109197920Y-94912520D01*
X109144580Y-94991260D01*
X109088700Y-95070000D01*
X109045520Y-95138580D01*
X109012500Y-95186840D01*
X108999800Y-95207160D01*
X109007420Y-95222400D01*
X109037900Y-95260500D01*
X109096320Y-95321460D01*
X109185220Y-95410360D01*
X109200460Y-95423060D01*
X109269040Y-95491640D01*
X109330000Y-95544980D01*
X109370640Y-95583080D01*
X109388420Y-95595780D01*
D14*
X100000000Y-94570000D02*
X97460000Y-94570000D01*
X102820000Y-94850000D02*
X101270000Y-94850000D01*
X100000000Y-94570000D02*
X100000000Y-92030000D01*
X101270000Y-91750000D02*
X102820000Y-91750000D01*
X102820000Y-91750000D02*
X102820000Y-94850000D01*
X100000000Y-92030000D02*
X97460000Y-92030000D01*
X97460000Y-92030000D02*
X97460000Y-94570000D01*
X96444000Y-101524000D02*
X96444000Y-104572000D01*
X96444000Y-104572000D02*
X103556000Y-104572000D01*
X103556000Y-104572000D02*
X103556000Y-101524000D01*
X96444000Y-98476000D02*
X96444000Y-97714000D01*
X96444000Y-97714000D02*
X97968000Y-95428000D01*
X97968000Y-95428000D02*
X102032000Y-95428000D01*
X102032000Y-95428000D02*
X103556000Y-97714000D01*
X103556000Y-97714000D02*
X103556000Y-98476000D01*
X108775000Y-105200000D02*
X108775000Y-106400000D01*
X107025000Y-106400000D02*
X107025000Y-105200000D01*
X88325000Y-106400000D02*
X88325000Y-105200000D01*
X90075000Y-105200000D02*
X90075000Y-106400000D01*
X91025000Y-106400000D02*
X91025000Y-105200000D01*
X92775000Y-105200000D02*
X92775000Y-106400000D01*
X95475000Y-105200000D02*
X95475000Y-106400000D01*
X93725000Y-106400000D02*
X93725000Y-105200000D01*
X98500000Y-106325000D02*
X99700000Y-106325000D01*
X99700000Y-108075000D02*
X98500000Y-108075000D01*
X110238000Y-104122000D02*
X111762000Y-104122000D01*
X111762000Y-107678000D02*
X111762000Y-106408000D01*
X110238000Y-107678000D02*
X110238000Y-106344500D01*
X110238000Y-107805000D02*
X111762000Y-107805000D01*
X111762000Y-107678000D02*
X111762000Y-107932000D01*
X111762000Y-107932000D02*
X110238000Y-107932000D01*
X110238000Y-107932000D02*
X110238000Y-107678000D01*
X110238000Y-107678000D02*
X111762000Y-107678000D01*
X89350000Y-94100000D02*
X89350000Y-95100000D01*
X91050000Y-95100000D02*
X91050000Y-94100000D01*
X106050000Y-106400000D02*
X106050000Y-105400000D01*
X104350000Y-105400000D02*
X104350000Y-106400000D01*
X113000000Y-107500000D02*
X113000000Y-92500000D01*
X88000000Y-108500000D02*
X112000000Y-108500000D01*
X87000000Y-92500000D02*
X87000000Y-107500000D01*
X112000000Y-91500000D02*
X88000000Y-91500000D01*
X113000000Y-92500000D02*
G75*
G03X112000000Y-91500000I-1000000J0D01*
G01*
X112000000Y-108500000D02*
G75*
G03X113000000Y-107500000I0J1000000D01*
G01*
X87000000Y-107500000D02*
G75*
G03X88000000Y-108500000I1000000J0D01*
G01*
X88000000Y-91500000D02*
G75*
G03X87000000Y-92500000I0J-1000000D01*
G01*
D15*
X95209524Y-95261905D02*
X95209524Y-94461905D01*
X95514286Y-94461905D01*
X95590477Y-94500000D01*
X95628572Y-94538095D01*
X95666667Y-94614286D01*
X95666667Y-94728571D01*
X95628572Y-94804762D01*
X95590477Y-94842857D01*
X95514286Y-94880952D01*
X95209524Y-94880952D01*
X95971429Y-94538095D02*
X96009524Y-94500000D01*
X96085715Y-94461905D01*
X96276191Y-94461905D01*
X96352381Y-94500000D01*
X96390477Y-94538095D01*
X96428572Y-94614286D01*
X96428572Y-94690476D01*
X96390477Y-94804762D01*
X95933334Y-95261905D01*
X96428572Y-95261905D01*
X99390476Y-104861905D02*
X99390476Y-105509524D01*
X99428571Y-105585714D01*
X99466667Y-105623810D01*
X99542857Y-105661905D01*
X99695238Y-105661905D01*
X99771429Y-105623810D01*
X99809524Y-105585714D01*
X99847619Y-105509524D01*
X99847619Y-104861905D01*
X100647619Y-105661905D02*
X100190476Y-105661905D01*
X100419047Y-105661905D02*
X100419047Y-104861905D01*
X100342857Y-104976190D01*
X100266666Y-105052381D01*
X100190476Y-105090476D01*
X107766667Y-103161905D02*
X107500000Y-102780952D01*
X107309524Y-103161905D02*
X107309524Y-102361905D01*
X107614286Y-102361905D01*
X107690477Y-102400000D01*
X107728572Y-102438095D01*
X107766667Y-102514286D01*
X107766667Y-102628571D01*
X107728572Y-102704762D01*
X107690477Y-102742857D01*
X107614286Y-102780952D01*
X107309524Y-102780952D01*
X108490477Y-102361905D02*
X108109524Y-102361905D01*
X108071429Y-102742857D01*
X108109524Y-102704762D01*
X108185715Y-102666667D01*
X108376191Y-102666667D01*
X108452381Y-102704762D01*
X108490477Y-102742857D01*
X108528572Y-102819048D01*
X108528572Y-103009524D01*
X108490477Y-103085714D01*
X108452381Y-103123810D01*
X108376191Y-103161905D01*
X108185715Y-103161905D01*
X108109524Y-103123810D01*
X108071429Y-103085714D01*
X89066667Y-103161905D02*
X88800000Y-102780952D01*
X88609524Y-103161905D02*
X88609524Y-102361905D01*
X88914286Y-102361905D01*
X88990477Y-102400000D01*
X89028572Y-102438095D01*
X89066667Y-102514286D01*
X89066667Y-102628571D01*
X89028572Y-102704762D01*
X88990477Y-102742857D01*
X88914286Y-102780952D01*
X88609524Y-102780952D01*
X89752381Y-102628571D02*
X89752381Y-103161905D01*
X89561905Y-102323810D02*
X89371429Y-102895238D01*
X89866667Y-102895238D01*
X91766667Y-103161905D02*
X91500000Y-102780952D01*
X91309524Y-103161905D02*
X91309524Y-102361905D01*
X91614286Y-102361905D01*
X91690477Y-102400000D01*
X91728572Y-102438095D01*
X91766667Y-102514286D01*
X91766667Y-102628571D01*
X91728572Y-102704762D01*
X91690477Y-102742857D01*
X91614286Y-102780952D01*
X91309524Y-102780952D01*
X92033334Y-102361905D02*
X92528572Y-102361905D01*
X92261905Y-102666667D01*
X92376191Y-102666667D01*
X92452381Y-102704762D01*
X92490477Y-102742857D01*
X92528572Y-102819048D01*
X92528572Y-103009524D01*
X92490477Y-103085714D01*
X92452381Y-103123810D01*
X92376191Y-103161905D01*
X92147619Y-103161905D01*
X92071429Y-103123810D01*
X92033334Y-103085714D01*
X94466667Y-103161905D02*
X94200000Y-102780952D01*
X94009524Y-103161905D02*
X94009524Y-102361905D01*
X94314286Y-102361905D01*
X94390477Y-102400000D01*
X94428572Y-102438095D01*
X94466667Y-102514286D01*
X94466667Y-102628571D01*
X94428572Y-102704762D01*
X94390477Y-102742857D01*
X94314286Y-102780952D01*
X94009524Y-102780952D01*
X94771429Y-102438095D02*
X94809524Y-102400000D01*
X94885715Y-102361905D01*
X95076191Y-102361905D01*
X95152381Y-102400000D01*
X95190477Y-102438095D01*
X95228572Y-102514286D01*
X95228572Y-102590476D01*
X95190477Y-102704762D01*
X94733334Y-103161905D01*
X95228572Y-103161905D01*
X102166667Y-107561905D02*
X101900000Y-107180952D01*
X101709524Y-107561905D02*
X101709524Y-106761905D01*
X102014286Y-106761905D01*
X102090477Y-106800000D01*
X102128572Y-106838095D01*
X102166667Y-106914286D01*
X102166667Y-107028571D01*
X102128572Y-107104762D01*
X102090477Y-107142857D01*
X102014286Y-107180952D01*
X101709524Y-107180952D01*
X102928572Y-107561905D02*
X102471429Y-107561905D01*
X102700000Y-107561905D02*
X102700000Y-106761905D01*
X102623810Y-106876190D01*
X102547619Y-106952381D01*
X102471429Y-106990476D01*
X110409524Y-103161905D02*
X110409524Y-102361905D01*
X110600000Y-102361905D01*
X110714286Y-102400000D01*
X110790477Y-102476190D01*
X110828572Y-102552381D01*
X110866667Y-102704762D01*
X110866667Y-102819048D01*
X110828572Y-102971429D01*
X110790477Y-103047619D01*
X110714286Y-103123810D01*
X110600000Y-103161905D01*
X110409524Y-103161905D01*
X111628572Y-103161905D02*
X111171429Y-103161905D01*
X111400000Y-103161905D02*
X111400000Y-102361905D01*
X111323810Y-102476190D01*
X111247619Y-102552381D01*
X111171429Y-102590476D01*
X88166667Y-93085714D02*
X88128572Y-93123810D01*
X88014286Y-93161905D01*
X87938096Y-93161905D01*
X87823810Y-93123810D01*
X87747619Y-93047619D01*
X87709524Y-92971429D01*
X87671429Y-92819048D01*
X87671429Y-92704762D01*
X87709524Y-92552381D01*
X87747619Y-92476190D01*
X87823810Y-92400000D01*
X87938096Y-92361905D01*
X88014286Y-92361905D01*
X88128572Y-92400000D01*
X88166667Y-92438095D01*
X88471429Y-92438095D02*
X88509524Y-92400000D01*
X88585715Y-92361905D01*
X88776191Y-92361905D01*
X88852381Y-92400000D01*
X88890477Y-92438095D01*
X88928572Y-92514286D01*
X88928572Y-92590476D01*
X88890477Y-92704762D01*
X88433334Y-93161905D01*
X88928572Y-93161905D01*
X105066667Y-103085714D02*
X105028572Y-103123810D01*
X104914286Y-103161905D01*
X104838096Y-103161905D01*
X104723810Y-103123810D01*
X104647619Y-103047619D01*
X104609524Y-102971429D01*
X104571429Y-102819048D01*
X104571429Y-102704762D01*
X104609524Y-102552381D01*
X104647619Y-102476190D01*
X104723810Y-102400000D01*
X104838096Y-102361905D01*
X104914286Y-102361905D01*
X105028572Y-102400000D01*
X105066667Y-102438095D01*
X105828572Y-103161905D02*
X105371429Y-103161905D01*
X105600000Y-103161905D02*
X105600000Y-102361905D01*
X105523810Y-102476190D01*
X105447619Y-102552381D01*
X105371429Y-102590476D01*
X93209524Y-96561905D02*
X93209524Y-95761905D01*
X93514286Y-95761905D01*
X93590477Y-95800000D01*
X93628572Y-95838095D01*
X93666667Y-95914286D01*
X93666667Y-96028571D01*
X93628572Y-96104762D01*
X93590477Y-96142857D01*
X93514286Y-96180952D01*
X93209524Y-96180952D01*
X94428572Y-96561905D02*
X93971429Y-96561905D01*
X94200000Y-96561905D02*
X94200000Y-95761905D01*
X94123810Y-95876190D01*
X94047619Y-95952381D01*
X93971429Y-95990476D01*
%LPC*%
D16*
X101270000Y-93300000D03*
D17*
X98730000Y-93300000D03*
D18*
X100000000Y-96698000D03*
D19*
X100000000Y-103302000D03*
X102286000Y-103302000D03*
X97714000Y-103302000D03*
D20*
X107900000Y-107150000D03*
X107900000Y-104450000D03*
X89200000Y-104450000D03*
X89200000Y-107150000D03*
X91900000Y-104450000D03*
X91900000Y-107150000D03*
X94600000Y-107150000D03*
X94600000Y-104450000D03*
D21*
X100450000Y-107200000D03*
X97750000Y-107200000D03*
D22*
X111000000Y-104850980D03*
X111000000Y-106949020D03*
D23*
X90200000Y-95850000D03*
X90200000Y-93350000D03*
X105200000Y-104650000D03*
X105200000Y-107150000D03*
D24*
X106350000Y-100000000D03*
X93650000Y-100000000D03*
M02*
